<svg width="50" height="49" viewBox="0 0 50 49" fill="none" xmlns="http://www.w3.org/2000/svg">
<path d="M43.75 25C43.75 14.6484 35.3516 6.25 25 6.25C14.6484 6.25 6.25 14.6484 6.25 25C6.25 35.3516 14.6484 43.75 25 43.75C35.3516 43.75 43.75 35.3516 43.75 25Z" stroke="white" stroke-miterlimit="10"/>
<path d="M21.125 32.6602L32.3018 25.9082C32.4576 25.8133 32.5863 25.6799 32.6757 25.5209C32.765 25.3618 32.8119 25.1824 32.8119 25C32.8119 24.8176 32.765 24.6382 32.6757 24.4792C32.5863 24.3201 32.4576 24.1867 32.3018 24.0918L21.125 17.3399C20.9648 17.2439 20.7819 17.1922 20.5952 17.1902C20.4085 17.1883 20.2245 17.236 20.0623 17.3285C19.9001 17.4211 19.7654 17.5551 19.6721 17.7168C19.5788 17.8786 19.5302 18.0623 19.5313 18.249V31.751C19.5302 31.9377 19.5788 32.1214 19.6721 32.2832C19.7654 32.4449 19.9001 32.579 20.0623 32.6715C20.2245 32.764 20.4085 32.8118 20.5952 32.8098C20.7819 32.8078 20.9648 32.7561 21.125 32.6602Z" fill="white"/>
</svg>
